<svg width="100%" height="100%" version="1.1" viewBox="0 0 488.53 198.9" xmlns="http://www.w3.org/2000/svg">
    <style>
        #logo-portfolio path {
            fill: var(--tblr-body-color);
        }
    </style>
    <g id="logo-portfolio">
        <path d="m91.497 123.56q-2.619 0-4.4252-0.27094-1.8062-0.27093-3.5221-0.54186-1.6256-0.27094-3.6124-0.27094-1.8965 0.0903-4.8768 0.72249l1.445-2.0772q2.7093-0.8128 4.9671-1.174 2.2578-0.45156 4.1543-0.63218 1.9868-0.18062 3.7028-0.0903 1.7159 0 3.4318 0 0.8128 0 1.0837 0.72249 0.36124 0.63217 0.18062 1.445t-0.8128 1.445q-0.63218 0.72249-1.7159 0.72249zm-59.876 0q-0.90311 0-1.2644-0.72249-0.36125-0.63218-0.0903-1.445 0.18063-0.8128 0.90311-1.445 0.63218-0.72249 1.8062-0.72249 2.1675 0 5.5993-2.1675 3.3415-2.2578 7.4055-6.0508 4.1543-3.8834 8.3989-9.1214t7.9474-11.289q3.7931-6.0508 6.4121-12.463l0.36124-0.72249q0.36125-1.0837 0.99342-1.445 0.63218-0.45156 1.8062-0.45156 1.445 0 1.8965 0.54187 0.45155 0.45156 0 1.5353l-8.3086 25.648q6.5927-10.025 11.56-16.166 4.9671-6.2315 9.0311-9.0311 4.064-2.89 7.8571-2.89 4.4252 0 6.5024 3.0706 2.1675 2.9803 2.1675 7.8571t-1.6256 10.025q-1.6256 5.1477-4.6059 10.115-2.89 4.8768-6.8636 8.7602-3.8834 3.8834-8.4892 6.2315-4.6059 2.3481-9.573 2.3481-3.5221 0-6.2315-1.174-2.619-1.0837-4.9671-2.9803l-10.657 32.693q-1.8965 5.9605-3.7931 9.6633-1.8062 3.7028-3.9737 5.4187-2.2578 1.7159-5.238 1.7159-1.5353 0-2.9803-0.8128-1.5353-0.72249-2.5287-2.2578-0.99342-1.5353-0.99342-4.1543 0-1.8965 0.72249-4.4252 0.72249-2.4384 2.2578-5.6896 1.445-3.1609 3.7028-7.1346 2.2578-3.8834 5.3284-8.5796 2.9803-4.6059 6.683-10.025t8.2183-11.47l6.0508-18.514q-3.7931 6.2315-8.0377 11.289-4.1543 5.0574-8.3989 8.7602-4.1543 3.7028-8.0377 5.6896t-6.954 1.9868zm3.2512 38.021q0 1.5353 0.54186 2.2578 0.54187 0.72249 1.7159 0.72249 1.0837 0 2.0772-0.8128 0.90311-0.8128 1.8062-2.5287 0.90311-1.6256 1.9868-4.4252 1.0837-2.7093 2.4384-6.683l8.3086-25.739q-3.2512 4.7865-5.9605 9.1214-2.619 4.3349-4.6962 8.0377-2.1675 3.7028-3.6124 6.8636-1.5353 3.1609-2.5287 5.5993-0.99342 2.5287-1.5353 4.4252-0.54186 1.8965-0.54186 3.1609zm27.003-46.42q2.3481 1.9868 4.6962 3.0706 2.3481 0.99342 5.238 0.99342 4.064 0 7.7668-2.0772 3.7931-2.1675 6.9539-5.6896 3.2512-3.5221 5.6896-7.7667 2.4384-4.3349 3.7931-8.7602 1.3547-4.5156 1.3547-8.3989 0-3.3415-0.99342-5.0574-0.99342-1.8062-3.7028-1.8062-1.8062 0-4.064 1.3547-2.1675 1.2644-4.8768 4.064-2.619 2.7093-5.8702 6.9539-3.2512 4.1543-7.2249 9.9342t-8.7602 13.185zm29.622 8.3989q-0.99342 0-1.445-0.72249-0.45156-0.63218-0.27093-1.445 0.09031-0.8128 0.90311-1.445 0.72249-0.72249 2.0772-0.72249 2.2578 0 5.1477-1.8062t6.1411-5.1477q3.1609-3.3415 6.4121-7.8571 3.3415-4.6059 6.4121-10.115 0.45156-0.8128 1.2644-0.72249 0.8128 0.0903 1.3547 0.72249 0.54187 0.54187 0.0903 1.3547-3.3415 6.3218-6.8636 11.469-3.5221 5.1477-7.1346 8.8505-3.6124 3.6124-7.1346 5.5993-3.5221 1.9868-6.9539 1.9868zm38.111 0.18062q-5.0574 0-8.5795-2.0772-3.4318-2.1675-5.238-5.9605-1.7159-3.8834-1.7159-8.8505 0-4.8768 1.7159-10.386t5.0574-10.386q3.4318-4.8768 8.4892-7.8571 5.1477-3.0706 12.011-3.0706 4.9671 0 8.3989 1.9868 3.5221 1.9868 5.3283 5.6896 1.8062 3.6124 1.8062 8.4892 0 3.7931-1.0837 8.2183-0.99342 4.3349-3.1609 8.6699-2.0772 4.2446-5.4187 7.7667-3.2512 3.5221-7.6764 5.6896-4.3349 2.0772-9.9342 2.0772zm0.54187-4.5156q5.3283 0 9.302-2.7093 4.064-2.7093 6.7733-6.8636 2.7093-4.2446 4.064-8.9408t1.3547-8.7602q0-3.7931-1.2644-6.5024-1.174-2.7996-3.6124-4.2446-2.4384-1.5353-5.9605-1.5353-5.238 0-9.302 2.619-3.9737 2.619-6.7733 6.7733-2.7093 4.1543-4.1543 8.8505t-1.445 8.6699q0 3.7931 1.2644 6.683 1.3547 2.89 3.7931 4.4252t5.9605 1.5353zm35.944-21.404q-2.4384 0-4.6962-1.174t-4.4252-3.9737q-2.2578-2.7996-4.6962-7.6764-0.54187-1.174 0-1.8062t1.5353-0.63218q0.90311-0.09031 1.445 0.72249 2.2578 4.1543 4.1543 6.4121t3.6124 3.2512q1.7159 0.90311 3.4318 0.90311 1.8062 0 3.7931-1.3547 2.0772-1.3547 4.3349-4.2446 2.2578-2.9803 4.6962-7.7668 0.45156-0.99342 1.2644-1.2644 0.8128-0.36124 1.5353-0.09031 0.8128 0.18062 1.174 0.8128 0.36124 0.54187-0.0903 1.3547-3.1609 6.2315-5.9605 9.8439t-5.509 5.1477q-2.7093 1.5353-5.5993 1.5353zm30.886 25.739q-2.619 0-4.1543-1.0837-1.5353-0.99342-2.1675-2.7093-0.63218-1.7159-0.45156-3.7931 0.18062-2.1675 0.8128-4.3349 0.63218-1.8062 1.7159-4.6059 1.174-2.7996 2.619-6.0508 1.445-3.3415 2.7093-6.5927 1.3547-3.3415 2.1675-6.1411 1.0837-3.7931 0.36124-5.4187-0.72249-1.7159-3.3415-1.7159t-5.509 0.72249q-2.7996 0.63218-5.4187 1.3547-2.5287 0.63218-4.5155 0.63218-0.99342 0-1.8062-0.72249t-1.2644-2.0772-0.54187-3.3415q0-1.7159 0.54187-3.0706 0.63218-1.3547 1.7159-2.1675 1.0837-0.8128 2.619-0.8128 1.0837 0 1.7159 0.8128 0.72249 0.8128 0.72249 2.0772 0 0.8128-0.36124 2.0772-0.27093 1.174-1.3547 3.0706 1.6256-0.18062 3.4318-0.72249t3.7028-1.0837q1.9868-0.54187 3.9737-0.90311 2.0772-0.45156 4.064-0.45156 2.7996 0 4.4252 1.3547 1.7159 1.2644 2.0772 3.9737 0.45156 2.619-0.63218 6.5927-0.72249 2.7093-1.9868 6.1412-1.2644 3.3415-2.7093 6.7733-1.445 3.3415-2.619 6.2315-1.174 2.7996-1.6256 4.6059-0.99342 3.4318-0.63218 5.238t2.89 1.8062q0.90311 0 1.174 0.72249 0.36124 0.63217 0.18062 1.445-0.0903 0.8128-0.72249 1.445-0.63218 0.72249-1.8062 0.72249zm-6e-5 0q-0.99342 0-1.445-0.72249-0.45156-0.63218-0.27093-1.445 0.0903-0.8128 0.90311-1.445 0.72249-0.72249 2.0772-0.72249 2.619 0 5.9605-1.8062 3.2512-1.8965 7.3152-6.0508 3.9737-4.1543 8.8505-11.018 4.8768-6.954 10.747-17.069 0.63218-0.90311 1.445-0.8128 0.8128 0.09031 1.2644 0.8128 0.45156 0.72249-0.0903 1.7159-6.3218 11.199-11.469 18.694-5.0574 7.4055-9.3923 11.74-4.3349 4.3349-8.2183 6.2314-3.9737 1.8965-7.6764 1.8965zm35.221 0q-3.6124 0-5.8702-1.7159t-3.2512-4.6059q-0.99342-2.9803-0.72249-6.8636t1.7159-8.3086l6.9539-20.862h-7.8571q-0.99342 0-1.2644-0.54187-0.18062-0.63218 0.18062-1.7159t0.90311-1.5353q0.54187-0.54187 1.445-0.54187h8.0377l6.2315-18.875q0.36124-1.0837 0.90311-1.445 0.63218-0.45156 1.8965-0.45156 1.6256 0 2.0772 0.54187 0.54187 0.54187 0.18062 1.6256l-6.2315 18.604h11.289q0.99342 0 1.174 0.54187 0.27093 0.54187-0.0903 1.6256-0.27093 1.174-0.8128 1.7159-0.54187 0.45156-1.5353 0.45156h-11.469l-7.0443 21.042q-1.5353 4.6059-1.8062 7.8571-0.18062 3.2512 0.45156 5.238 0.72249 1.9868 2.1675 2.9803 1.445 0.90311 3.2512 0.90311 0.90311 0 1.3547 0.72249 0.45156 0.63217 0.36124 1.445 0 0.8128-0.63218 1.445-0.63218 0.72249-1.9868 0.72249zm-0.18071 0q-1.174 0-1.5353-0.72249-0.36124-0.63218-0.0903-1.445 0.27093-0.8128 1.0837-1.445 0.72249-0.72249 1.8062-0.72249 2.3481 0 6.2315-2.3481 3.8834-2.4384 8.7602-6.683t10.205-9.7536q5.4187-5.5993 10.657-11.921 5.3283-6.4121 10.115-13.095 4.8768-6.683 8.4892-13.185 3.7028-6.5024 5.7799-12.282 2.1675-5.7799 2.1675-10.386 0-1.0837 0.72249-1.6256 0.8128-0.63218 1.7159-0.63218 0.99342 0 1.7159 0.63218 0.72249 0.54187 0.72249 1.6256 0 4.1543-1.8062 9.4827-1.7159 5.238-4.8768 11.199-3.1609 5.9605-7.4055 12.192t-9.1214 12.463q-4.8768 6.1412-10.025 11.831t-10.295 10.657q-5.1477 4.8768-9.7536 8.4892-4.6962 3.6124-8.5795 5.6896-3.9737 1.9868-6.683 1.9868zm18.153 45.155q-2.7093 0-4.5156-1.2644t-2.5287-3.9737-0.18062-6.954q0.45156-4.1543 2.4384-10.115l31.248-95.82q3.4318-10.747 7.2249-15.624 3.7931-4.9671 8.6699-4.9671 2.7093 0 4.5156 1.2644 1.8062 1.174 2.7093 3.3415t0.90311 4.9671q0 1.0837-0.72249 1.7159-0.72249 0.54187-1.7159 0.54187-0.90311 0-1.7159-0.54187-0.72249-0.63218-0.72249-1.7159 0-1.6256-0.36124-2.7093-0.36125-1.174-1.174-1.7159-0.72249-0.63218-2.0772-0.63218-1.9868 0-3.7931 1.8062-1.7159 1.8062-3.6124 5.7799-1.8062 3.9737-3.9737 10.476l-14.811 45.878q0.90311 3.7931 1.3547 8.3989 0.54187 4.5156 0.63218 9.573 0.18062 4.9671-0.0903 10.025-0.27093 5.1477-0.8128 10.025-0.45156 4.9671-1.2644 9.3923t-1.8062 8.0377q-1.2644 4.5156-3.2512 7.8571-1.8965 3.3415-4.5156 5.1477-2.5287 1.8062-6.0508 1.8062zm0.54187-4.5156q1.445 0 2.619-0.72248 1.174-0.72249 2.1675-2.1675 1.0837-1.3547 1.8965-3.2512 0.90311-1.8965 1.6256-4.4252 0.90311-2.9803 1.7159-6.683t1.3547-7.9474q0.63218-4.1543 1.0837-8.4892t0.54187-8.4892q0.0903-4.2446 0-8.0377t-0.63218-6.8636l-13.185 41.001q-2.7093 8.3086-2.3481 12.192 0.27093 3.8834 3.1609 3.8834zm26.19-43.349q-2.89 0-5.0574-1.8062t-3.7028-4.6059q-1.6256-2.7996-2.619-5.9605-1.0837-3.2512-1.6256-6.0508-0.63218-2.7996-0.8128-4.5156 0-0.72249 0.54187-1.0837 0.54187-0.45155 1.174-0.27093 0.63218 0.0903 0.72249 0.90311 0.63218 2.89 1.6256 6.3218 0.99342 3.3415 2.5287 6.3218 1.445 2.89 3.3415 4.7865t4.2446 1.8965q2.7093 0 5.4187-1.9868 2.7093-1.9868 5.3283-5.3284 2.7093-3.3415 5.0574-7.5861 2.4384-4.3349 4.5156-8.7602 0.36124-0.99342 1.0837-0.8128 0.8128 0.18062 1.2644 0.8128 0.54186 0.54187 0.27093 1.2644-3.3415 8.7602-7.3152 14.63-3.8834 5.8702-7.9474 8.8505t-8.0377 2.9803zm32.873 2.89q-5.0574 0-8.5796-2.0772-3.4318-2.1675-5.238-5.9605-1.7159-3.8834-1.7159-8.8505 0-4.8768 1.7159-10.386t5.0574-10.386q3.4318-4.8768 8.4892-7.8571 5.1477-3.0706 12.011-3.0706 4.9671 0 8.3989 1.9868 3.5221 1.9868 5.3284 5.6896 1.8062 3.6124 1.8062 8.4892 0 3.7931-1.0837 8.2183-0.99342 4.3349-3.1609 8.6699-2.0772 4.2446-5.4187 7.7667-3.2512 3.5221-7.6764 5.6896-4.3349 2.0772-9.9342 2.0772zm0.54186-4.5156q5.3284 0 9.302-2.7093 4.064-2.7093 6.7733-6.8636 2.7093-4.2446 4.064-8.9408t1.3547-8.7602q0-3.7931-1.2644-6.5024-1.174-2.7996-3.6124-4.2446-2.4384-1.5353-5.9605-1.5353-5.238 0-9.302 2.619-3.9737 2.619-6.7733 6.7733-2.7093 4.1543-4.1543 8.8505t-1.445 8.6699q0 3.7931 1.2644 6.683 1.3547 2.89 3.7931 4.4252t5.9605 1.5353zm42.085-29.803q-5.0574 0-10.566-1.5353-5.509-1.6256-10.747-5.1477-0.90311-0.63218-0.99342-1.3547-0.0903-0.72249 0.36124-1.2644 0.45156-0.63218 1.174-0.8128 0.63217-0.18062 1.3547 0.27093 3.3415 2.0772 6.5927 3.4318 3.2512 1.3547 6.4121 1.9868 3.2512 0.54187 6.3218 0.54187 4.2446 0 8.3086-1.445 4.064-1.5353 7.6764-4.064 3.6124-2.619 6.683-6.0508 3.1609-3.4318 5.7799-7.2249 2.7093-3.7931 4.7865-7.6764 2.1675-3.9737 3.5221-7.5861 1.445-3.7028 2.1675-6.7733 0.72249-3.0706 0.72249-5.1477 0-0.99342 0.72249-1.445 0.8128-0.54187 1.7159-0.54187 0.99342 0 1.7159 0.54187 0.72249 0.45156 0.72249 1.445 0 2.2578-0.8128 5.5993t-2.4384 7.3152-3.9737 8.2183-5.3284 8.3989q-2.89 4.1543-6.4121 7.8571-3.5221 3.6124-7.5861 6.5024-4.064 2.7996-8.5795 4.4252-4.4252 1.5353-9.302 1.5353zm11.289 34.138q-4.5156 0-6.954-2.7996t-2.5287-7.9474q-0.0903-5.1477 2.0772-11.921l16.437-50.303q3.4318-10.747 7.2249-15.624 3.7931-4.9671 8.6698-4.9671 2.7093 0 4.5156 1.2644 1.8062 1.174 2.7093 3.3415t0.90311 4.9671q0 1.0837-0.72249 1.7159-0.72248 0.54187-1.7159 0.54187-0.90311 0-1.7159-0.54187-0.72249-0.63218-0.72249-1.7159 0-1.6256-0.36125-2.7093-0.36124-1.174-1.174-1.7159-0.72249-0.63218-2.0772-0.63218-1.9868 0-3.7931 1.8062-1.7159 1.8062-3.5221 5.7799t-4.064 10.476l-15.895 49.129q-1.9868 5.8702-2.1675 9.7536-0.0903 3.8834 1.445 5.8702 1.5353 1.8965 4.6059 1.8965 0.99342 0 1.3547 0.72249 0.45155 0.63217 0.27093 1.445t-0.90311 1.445q-0.72249 0.72249-1.8965 0.72249zm0.0902 0q-0.99342 0-1.445-0.72249-0.45156-0.63218-0.27094-1.445 0.0903-0.8128 0.90311-1.445 0.72249-0.72249 2.0772-0.72249 2.5287 0 5.509-2.0772 2.9803-2.1675 6.954-6.8636 3.8834-4.6962 9.1214-12.373 5.238-7.6764 12.192-18.875 0.54187-0.90311 1.3547-0.8128 0.90311 0.09031 1.3547 0.8128 0.54187 0.72249 0 1.5353-7.6764 12.734-13.185 21.133-5.509 8.3086-9.6633 13.095-4.1543 4.7865-7.6764 6.7733t-7.2249 1.9868zm29.441 0q-2.5287 0-4.064-0.90311-1.445-0.90311-2.0772-2.5287t-0.45155-3.7931q0.27093-2.2578 1.0837-4.8768l11.199-34.047q0.36125-1.0837 0.90311-1.445 0.54187-0.45156 1.7159-0.45156 1.5353 0 2.0772 0.54187 0.54187 0.54187 0.18063 1.6256l-11.018 33.686q-1.3547 4.1543-1.174 6.0508 0.27093 1.8062 2.7996 1.8062 0.99342 0 1.3547 0.72249 0.45155 0.63217 0.27093 1.445t-0.90311 1.445q-0.63218 0.72249-1.8965 0.72249zm13.727-63.218q-1.5353 0-2.619-0.8128-0.99342-0.90311-0.99342-2.4384 0-2.1675 1.3547-3.8834 1.3547-1.8062 3.8834-1.8062 1.5353 0 2.5287 0.8128 1.0837 0.8128 1.0837 2.5287 0 2.0772-1.3547 3.8834-1.3547 1.7159-3.8834 1.7159zm-13.818 63.218q-0.99342 0-1.445-0.72249-0.45155-0.63218-0.27093-1.445 0.0903-0.8128 0.90311-1.445 0.72249-0.72249 2.0772-0.72249 2.2578 0 5.1477-1.8062t6.1412-5.1477q3.1609-3.3415 6.4121-7.8571 3.3415-4.6059 6.4121-10.115 0.45155-0.8128 1.2644-0.72249 0.8128 0.0903 1.3547 0.72249 0.54186 0.54187 0.0903 1.3547-3.3415 6.3218-6.8636 11.469-3.5221 5.1477-7.1346 8.8505-3.6124 3.6124-7.1346 5.5993-3.5221 1.9868-6.954 1.9868zm38.111 0.18062q-5.0574 0-8.5795-2.0772-3.4318-2.1675-5.238-5.9605-1.7159-3.8834-1.7159-8.8505 0-4.8768 1.7159-10.386t5.0574-10.386q3.4318-4.8768 8.4892-7.8571 5.1477-3.0706 12.011-3.0706 4.9671 0 8.3989 1.9868 3.5221 1.9868 5.3284 5.6896 1.8062 3.6124 1.8062 8.4892 0 3.7931-1.0837 8.2183-0.99342 4.3349-3.1609 8.6699-2.0772 4.2446-5.4187 7.7667-3.2512 3.5221-7.6764 5.6896-4.3349 2.0772-9.9342 2.0772zm0.54187-4.5156q5.3283 0 9.302-2.7093 4.064-2.7093 6.7733-6.8636 2.7093-4.2446 4.064-8.9408t1.3547-8.7602q0-3.7931-1.2644-6.5024-1.174-2.7996-3.6124-4.2446-2.4384-1.5353-5.9605-1.5353-5.238 0-9.302 2.619-3.9737 2.619-6.7733 6.7733-2.7093 4.1543-4.1543 8.8505t-1.445 8.6699q0 3.7931 1.2644 6.683 1.3547 2.89 3.7931 4.4252t5.9605 1.5353z"
              stroke-linecap="round" stroke-linejoin="round" stroke-width="5.2917" aria-label="portfolio"/>
    </g>
</svg>
